<?xml version="1.0" encoding="UTF-8" standalone="no"?>
<!-- Created with Inkscape (http://www.inkscape.org/) -->

<svg
   width="512"
   height="512"
   viewBox="0 0 135.46666 135.46667"
   version="1.1"
   id="svg1234"
   inkscape:version="1.1.1 (3bf5ae0d25, 2021-09-20)"
   sodipodi:docname="icon.svg"
   inkscape:dataloss="true"
   xmlns:inkscape="http://www.inkscape.org/namespaces/inkscape"
   xmlns:sodipodi="http://sodipodi.sourceforge.net/DTD/sodipodi-0.dtd"
   xmlns="http://www.w3.org/2000/svg"
   xmlns:svg="http://www.w3.org/2000/svg">
  <sodipodi:namedview
     id="namedview1236"
     pagecolor="#ffffff"
     bordercolor="#666666"
     borderopacity="1.0"
     inkscape:pageshadow="2"
     inkscape:pageopacity="0.0"
     inkscape:pagecheckerboard="0"
     inkscape:document-units="mm"
     showgrid="false"
     units="px"
     width="64px"
     inkscape:zoom="0.46858866"
     inkscape:cx="-87.496782"
     inkscape:cy="198.46831"
     inkscape:window-width="1366"
     inkscape:window-height="738"
     inkscape:window-x="0"
     inkscape:window-y="0"
     inkscape:window-maximized="1"
     inkscape:current-layer="layer1" />
  <defs
     id="defs1231" />
  <g
     inkscape:label="Layer 1"
     inkscape:groupmode="layer"
     id="layer1">
    <path
       id="path1340"
       style="fill:#f2f2f2;fill-opacity:1;stroke:none;stroke-width:10.0781;stroke-linejoin:bevel;stroke-miterlimit:4;stroke-dasharray:none;stroke-opacity:1"
       d="M 67.733333,3.3333333e-6 A 67.73333,67.73333 0 0 0 8.5333332e-7,67.733335 67.73333,67.73333 0 0 0 67.733333,135.46666 67.73333,67.73333 0 0 0 135.46667,67.733335 67.73333,67.73333 0 0 0 67.733333,3.3333333e-6 Z m 0,8.2020831666667 A 59.531249,59.531249 0 0 1 127.26458,67.733335 59.531249,59.531249 0 0 1 67.733333,127.26458 59.531249,59.531249 0 0 1 8.2020841,67.733335 59.531249,59.531249 0 0 1 67.733333,8.2020865 Z" />
    <path
       id="rect2092"
       style="fill:#f2f2f2;fill-opacity:1;stroke:#333333;stroke-width:3.49999;stroke-linecap:round;stroke-linejoin:bevel;stroke-miterlimit:4;stroke-dasharray:none;stroke-opacity:1;paint-order:normal"
       d="m 94.399528,20.568407 -9.437924,16.346966 0.84673,0.48886 9.437925,-16.346966 z m -44.741196,77.494026 -9.437924,16.346967 0.84673,0.48886 9.437925,-16.346967 z" />
    <path
       id="rect2092-6"
       style="fill:#f2f2f2;fill-opacity:1;stroke:#333333;stroke-width:3.49999;stroke-linecap:round;stroke-linejoin:bevel;stroke-miterlimit:4;stroke-dasharray:none;stroke-opacity:1;paint-order:normal"
       d="m 21.057267,40.220408 -0.48886,0.84673 16.346965,9.437925 0.48886,-0.84673 z m 77.494025,44.741196 -0.48886,0.846731 16.346968,9.437924 0.48886,-0.846731 z" />
    <text
       xml:space="preserve"
       style="font-size:10.5833px;line-height:1.25;font-family:Montserrat;-inkscape-font-specification:Montserrat;stroke-width:0.264583"
       x="32.430061"
       y="67.244476"
       id="text4612"><tspan
         sodipodi:role="line"
         id="tspan4610"
         style="stroke-width:0.264583"></tspan></text>
    <text
       xml:space="preserve"
       style="font-size:67.0278px;line-height:1.25;font-family:Montserrat;-inkscape-font-specification:Montserrat;stroke-width:0.264583;fill:#f9f9f9"
       x="49.591461"
       y="80.791496"
       id="text10754"
       transform="rotate(8.2361049)"><tspan
         sodipodi:role="line"
         id="tspan10752"
         style="font-style:normal;font-variant:normal;font-weight:600;font-stretch:normal;font-size:67.0278px;font-family:Montserrat;-inkscape-font-specification:'Montserrat Semi-Bold';fill:#f9f9f9;fill-opacity:1;stroke-width:0.264583"
         x="49.591461"
         y="80.791496">H</tspan></text>
  </g>
</svg>
